<svg height="360px" style="enable-background:new 0 0 512 512;fill:#1097aa;" version="1.1" viewBox="0 0 512 512" width="360px" xml:space="preserve" xmlns="http://www.w3.org/2000/svg" xmlns:xlink="http://www.w3.org/1999/xlink"><style type="text/css">

<![CDATA[
	.st0{display:inline;fill:#1097aa;stroke:#000000;stroke-width:16;stroke-linecap:round;stroke-linejoin:round;stroke-miterlimit:10;}
	.st1{display:none;}
]]>
</style><g class="st1" id="layer"><polyline class="st0" points="260,453 260,55 109,206 260,55 411,206  "/></g><g id="expanded"><g><path d="M101,206c0-2.047,0.781-4.095,2.343-5.657l151-151c0.004-0.004,0.009-0.008,0.013-0.012c0.001,0,0.002-0.002,0.003-0.003    c1.423-1.416,3.246-2.186,5.104-2.31c0.518-0.035,1.039-0.02,1.559,0.047c1.514,0.194,2.981,0.82,4.205,1.878    c0.164,0.142,0.322,0.289,0.473,0.443l150.957,150.958c3.125,3.124,3.125,8.189,0,11.313c-3.123,3.125-8.189,3.125-11.313,0    L268,74.313V453c0,4.418-3.582,8-8,8s-8-3.582-8-8V74.313L114.657,211.657C113.095,213.219,111.048,214,109,214    s-4.095-0.781-5.657-2.343C101.781,210.095,101,208.047,101,206z"/></g></g></svg>
