<svg id="レイヤー_1" data-name="レイヤー 1" xmlns="http://www.w3.org/2000/svg" viewBox="0 0 32 32"><defs><style>.cls-1{fill:#1097aa;}</style></defs><path class="cls-1" d="M27.52,17.25a4.55,4.55,0,1,0-4.09,0,5.89,5.89,0,0,0-1.46.67v-.33a5.34,5.34,0,0,0-3.92-5.11,4.54,4.54,0,1,0-4.1,0A5.34,5.34,0,0,0,10,17.59v.33a5.89,5.89,0,0,0-1.46-.67,4.54,4.54,0,1,0-4.09,0A5.34,5.34,0,0,0,.55,22.36v4.73a1,1,0,0,0,2,0V22.36c0-2,1.68-3.42,4-3.42s4,1.44,4,3.42v4.73a1,1,0,1,0,2,0V22.36A5.27,5.27,0,0,0,12,20.17V17.59c0-2,1.67-3.42,4-3.42s4,1.44,4,3.42v2.58a5.27,5.27,0,0,0-.47,2.19v4.73a1,1,0,1,0,2,0V22.36c0-2,1.67-3.42,4-3.42s4,1.44,4,3.42v4.73a1,1,0,0,0,2,0V22.36A5.34,5.34,0,0,0,27.52,17.25Zm-21-6.57A2.54,2.54,0,1,1,4,13.22,2.54,2.54,0,0,1,6.53,10.68ZM16,5.91a2.54,2.54,0,1,1-2.54,2.54A2.54,2.54,0,0,1,16,5.91Zm9.47,4.77a2.54,2.54,0,1,1-2.54,2.54A2.54,2.54,0,0,1,25.47,10.68Z"/></svg>