<svg id="レイヤー_1" data-name="レイヤー 1" xmlns="http://www.w3.org/2000/svg" viewBox="0 0 32 32"><defs><style>.cls-1{fill:#1097aa;}</style></defs><path class="cls-1" d="M13.15,17.44a1,1,0,1,0,1.41,1.41ZM28,5a1,1,0,0,0-1-1H18a1,1,0,0,0,0,2h8v8a1,1,0,0,0,2,0ZM14.56,18.85,27.71,5.71,26.29,4.29,13.15,17.44ZM15,7.1a1,1,0,0,0-1-1H6.19A2.19,2.19,0,0,0,4,8.29V25.81A2.19,2.19,0,0,0,6.19,28H23.71a2.19,2.19,0,0,0,2.19-2.19V18.05a1,1,0,0,0-1-1h-.19a1,1,0,0,0-1,1v6.76a1,1,0,0,1-1,1H7.19a1,1,0,0,1-1-1V9.29a1,1,0,0,1,1-1H14a1,1,0,0,0,1-1Z"/></svg>