<svg id="レイヤー_1" data-name="レイヤー 1" xmlns="http://www.w3.org/2000/svg" viewBox="0 0 32 32"><defs><style>.cls-1{fill:#1097aa;}</style></defs><path class="cls-1" d="M24.74,4.45h-.21v-1a1,1,0,1,0-2,0v1H9.8v-1a1,1,0,0,0-2,0v1H7.26A6.84,6.84,0,0,0,.44,11.28V22.73a6.83,6.83,0,0,0,6.82,6.82H24.74a6.83,6.83,0,0,0,6.82-6.82V11.28A6.84,6.84,0,0,0,24.74,4.45Zm-17.48,2H7.8v1a1,1,0,1,0,2,0v-1H22.53v1a1,1,0,1,0,2,0v-1h.21a4.82,4.82,0,0,1,4.51,3.16H2.75A4.82,4.82,0,0,1,7.26,6.45Zm17.48,21.1H7.26a4.82,4.82,0,0,1-4.82-4.82V11.61H29.56V22.73A4.82,4.82,0,0,1,24.74,27.55ZM8,14.66h2.68v2.68H8Zm0,6.69h2.68V24H8Zm6.69-6.69h2.68v2.68H14.66Zm0,6.69h2.68V24H14.66Zm6.69-6.69H24v2.68H21.35Zm0,6.69H24V24H21.35Z"/></svg>