<svg width="36" height="25" viewBox="0 0 36 25" fill="none" xmlns="http://www.w3.org/2000/svg">
<path fill-rule="evenodd" clip-rule="evenodd" d="M24.4 17.6009C25.3626 16.2677 26.93 15.4 28.7 15.4C31.6271 15.4 34 17.7729 34 20.7V24.9H35.4V20.7C35.4 17.5071 33.1666 14.8359 30.1768 14.1633C32.0491 13.5441 33.4 11.7798 33.4 9.7C33.4 7.10426 31.2957 5 28.7 5C26.1043 5 24 7.10426 24 9.7C24 11.7798 25.3509 13.5441 27.2232 14.1633C26.1651 14.4013 25.2018 14.8897 24.3986 15.5629C24.3357 12.4309 22.1237 9.82621 19.1768 9.1633C21.0491 8.54414 22.4 6.77983 22.4 4.7C22.4 2.10426 20.2957 0 17.7 0C15.1043 0 13 2.10426 13 4.7C13 6.77983 14.3509 8.54414 16.2232 9.1633C13.2763 9.82621 11.0643 12.4308 11.0014 15.5629C10.1982 14.8897 9.23488 14.4013 8.17681 14.1633C10.0491 13.5441 11.4 11.7798 11.4 9.7C11.4 7.10426 9.29574 5 6.7 5C4.10426 5 2 7.10426 2 9.7C2 11.7798 3.35094 13.5441 5.22319 14.1633C2.23341 14.8359 0 17.5071 0 20.7V24.9H1.4V20.7C1.4 17.7729 3.77289 15.4 6.7 15.4C8.47005 15.4 10.0374 16.2677 11 17.6009V19.9H11.94C11.9795 20.1609 12 20.4281 12 20.7V24.9H13.4V20.7C13.4 19.4075 13.034 18.2004 12.4 17.1769V15.7C12.4 12.7729 14.7729 10.4 17.7 10.4C20.6271 10.4 23 12.7729 23 15.7V17.1769C22.366 18.2004 22 19.4075 22 20.7V24.9H23.4V20.7C23.4 20.4281 23.4205 20.1609 23.46 19.9H24.4V17.6009ZM21 4.7C21 6.52254 19.5225 8 17.7 8C15.8775 8 14.4 6.52254 14.4 4.7C14.4 2.87746 15.8775 1.4 17.7 1.4C19.5225 1.4 21 2.87746 21 4.7ZM5.6555 14.2835C5.65554 14.2835 5.65546 14.2835 5.6555 14.2835V14.2835ZM11.2002 17.5372C11.2001 17.5371 11.2003 17.5373 11.2002 17.5372V17.5372ZM11.2 17.8986C11.2001 17.8988 11.1999 17.8985 11.2 17.8986V17.8986ZM5.6626 14.0798C5.66257 14.0798 5.66262 14.0798 5.6626 14.0798V14.0798ZM11.2002 15.7362C11.2001 15.7362 11.2003 15.7363 11.2002 15.7362V15.7362ZM10 9.7C10 11.5225 8.52254 13 6.7 13C4.87746 13 3.4 11.5225 3.4 9.7C3.4 7.87746 4.87746 6.4 6.7 6.4C8.52254 6.4 10 7.87746 10 9.7ZM32 9.7C32 11.5225 30.5225 13 28.7 13C26.8775 13 25.4 11.5225 25.4 9.7C25.4 7.87746 26.8775 6.4 28.7 6.4C30.5225 6.4 32 7.87746 32 9.7Z" fill="#1097AA"/>
</svg>
