<svg id="レイヤー_1" data-name="レイヤー 1" xmlns="http://www.w3.org/2000/svg" viewBox="0 0 32 32"><defs><style>.cls-1{fill:#1097aa;}</style></defs><path class="cls-1" d="M16,30.85a6.25,6.25,0,0,1-4.28-2.07,19.12,19.12,0,0,1-3.5-5A28.87,28.87,0,0,1,5,12.15a11,11,0,0,1,22,0,28.87,28.87,0,0,1-3.22,11.63,19.12,19.12,0,0,1-3.5,5A6.25,6.25,0,0,1,16,30.85Zm0-27.7a9,9,0,0,0-9,9,27.32,27.32,0,0,0,3,10.72,17.39,17.39,0,0,0,3.11,4.48c2.05,2,3.73,2,5.78,0A17.39,17.39,0,0,0,22,22.87a27.32,27.32,0,0,0,3-10.72A9,9,0,0,0,16,3.15Zm0,14.5a5.5,5.5,0,1,1,5.5-5.5A5.51,5.51,0,0,1,16,17.65Zm0-9a3.5,3.5,0,1,0,3.5,3.5A3.5,3.5,0,0,0,16,8.65Z"/></svg>