<svg xmlns="http://www.w3.org/2000/svg" viewBox="0 0 393.35 232.87"><defs><style>.cls-1{fill:#d6003a;}.cls-2{fill:#231815;}.cls-3{fill:#fff;}</style></defs><g id="レイヤー_2" data-name="レイヤー 2"><g id="pycon_logo" data-name="pycon logo"><path class="cls-1" d="M146.44,71.85c7.83-.51,11.67-6.87,11.67-19.08,0-13.1-3.78-19.82-11.25-20.19A20.33,20.33,0,0,0,138.31,34c-2.25.8-4.42,1.6-4.42,2.41V67.68A20.14,20.14,0,0,0,146.44,71.85Z"/><path class="cls-1" d="M177,173.32a5.94,5.94,0,0,0-1.52-2.25,4.12,4.12,0,0,0-2.67-1,8.71,8.71,0,0,0-2.13.14,12.75,12.75,0,0,0-1.81.49,8,8,0,0,0-1.29.59c-.34.19-.68.36-.68.49v13.92c0,.2.62.41,1.05.64a11.86,11.86,0,0,0,1.38.63,9.67,9.67,0,0,0,1.58.47,6.67,6.67,0,0,0,1.66.12,5,5,0,0,0,2.82-.93,5.27,5.27,0,0,0,1.59-2.08,9.7,9.7,0,0,0,.71-2.68,24.89,24.89,0,0,0,.17-2.81,26.94,26.94,0,0,0-.17-2.86A11.19,11.19,0,0,0,177,173.32Z"/><path class="cls-1" d="M219.89,175a4.76,4.76,0,0,0-1.34-3.79,5.21,5.21,0,0,0-3.77-1.25,8.21,8.21,0,0,0-2.74.56c-.86.34-1.15.71-2.15,1.1v18.12h-3V171.22c0-.65,1.57-1.23,2.43-1.74a11.43,11.43,0,0,1,2.9-1.2,19.06,19.06,0,0,1,3-.61,10.21,10.21,0,0,1,3.62.22,7.59,7.59,0,0,1,3.51,1.79,4.64,4.64,0,0,1,1.54,3.55v3.68a117.76,117.76,0,0,0,16-59.06,114.09,114.09,0,0,0-24-70V72c0,8.92-.71,15.1-2.5,18.54s-5.13,6.18-10.18,8.22A39,39,0,0,1,190,101.36l-1.3-5a62.9,62.9,0,0,0,10.23-2c3.89-1.31,6.67-3.33,8.14-6,1.17-2.2,1.86-6.4,1.86-12.62V73.61a43.47,43.47,0,0,1-17.35,3.72A16.1,16.1,0,0,1,181,73.61a12.75,12.75,0,0,1-5.13-10.31V30l8-2.75V60.77a10.25,10.25,0,0,0,3.51,8.29,12.74,12.74,0,0,0,8.85,2.79c3.68-.08,7.64-1.5,11.64-4.27V38.5A114.45,114.45,0,0,0,124.77,2.81a113,113,0,0,0-50.88,11.9v-.37c0-6.54-5.44-11.45-12-12.54a74.72,74.72,0,0,0-12.54-1,67.74,67.74,0,0,0-11.47,1c-10.19,1.8-12,5.57-12,12.54v9.44h24v3H16.77c-7,0-13.15,4.11-15.07,12.13-2.22,9.18-2.31,15,0,24.57,1.71,7.14,5.81,12.3,12.82,12.3H18a113.65,113.65,0,0,0-8,42.16A114.83,114.83,0,0,0,124.88,232.87c39.56,0,75-20,95-50.36ZM36.35,17.4a4.6,4.6,0,1,1,4.53-4.58A4.55,4.55,0,0,1,36.35,17.4Zm89.54,18.25a13.75,13.75,0,0,1,4.88-4.17c4.77-2.78,10.48-4.21,17.3-4.28l.07.12A15.92,15.92,0,0,1,162.53,35q4.72,7.14,4.71,18.32,0,10-4.7,16.57a17,17,0,0,1-14.37,7.67c-4.68.15-9.28-1.31-14.28-4.38v28.41l-8-2.86Zm-.45,90.53a17,17,0,0,1,2.38-5,12.42,12.42,0,0,1,3.92-3.65,10.27,10.27,0,0,1,5.49-1.35,19.87,19.87,0,0,1,4.9.66,12.25,12.25,0,0,1,4.07,1.94l-1.28,2.15a11.46,11.46,0,0,0-3.48-1.57,15.24,15.24,0,0,0-3.67-.44,6.45,6.45,0,0,0-4.09,1.28,9.64,9.64,0,0,0-2.65,3.18,14.67,14.67,0,0,0-1.42,4.17,27.72,27.72,0,0,0-.47,4.26,22.93,22.93,0,0,0,.18,2.72,18.88,18.88,0,0,0,.58,3A16.49,16.49,0,0,0,131,140.3a11,11,0,0,0,1.61,2.42,7.36,7.36,0,0,0,2.16,1.69,5.91,5.91,0,0,0,2.79.64,13.14,13.14,0,0,0,2.38-.2,9.51,9.51,0,0,0,2-.61c.66-.28,1.34-.61,2.06-1l2.5-1.38,1.37,2.16a18.05,18.05,0,0,1-5.36,2.93,17.54,17.54,0,0,1-5.71.83h-.05a9.28,9.28,0,0,1-5.29-1.46,13.64,13.64,0,0,1-3.88-3.91,18.81,18.81,0,0,1-2.35-5.22,18,18,0,0,1-.68-5.48A21.46,21.46,0,0,1,125.44,126.18Zm11.45,53.32a15.65,15.65,0,0,1-.65,4.76,8.41,8.41,0,0,1-1.89,3.28,7.47,7.47,0,0,1-3,1.88,11.63,11.63,0,0,1-3.89.62,8.22,8.22,0,0,1-2-.22,11.36,11.36,0,0,1-1.86-.71l.78-2.26a7.68,7.68,0,0,1,.88.3,3.55,3.55,0,0,0,.88.24,6.65,6.65,0,0,0,3.83-.27,4.84,4.84,0,0,0,2.15-1.88,7.23,7.23,0,0,0,.75-2.77,19.66,19.66,0,0,0,0-3V159.36l4-1.22Zm21,6.86c0,.52-1.08,1-1.75,1.47A11.74,11.74,0,0,1,154,189a14.1,14.1,0,0,1-2.62.78,12.83,12.83,0,0,1-3,.25,6.78,6.78,0,0,1-2.74-.56,7,7,0,0,1-3.68-3.76,7.15,7.15,0,0,1-.54-2.76,7.38,7.38,0,0,1,.62-2.81,5.84,5.84,0,0,1,1.56-2.1,6.45,6.45,0,0,1,2.33-1.06,9.05,9.05,0,0,1,2.89-.21h6.15v-2.59a3.84,3.84,0,0,0-.55-1.7,4.38,4.38,0,0,0-1.11-1.31,4.82,4.82,0,0,0-1.53-.84,5.32,5.32,0,0,0-1.76-.29,10.24,10.24,0,0,0-2.93.39,17.05,17.05,0,0,0-2.72,1.12l-.88-2.05a15.49,15.49,0,0,1,3.57-1.45,15.92,15.92,0,0,1,3.87-.42,7.93,7.93,0,0,1,2.62.45,7.16,7.16,0,0,1,2.28,1.24,6.39,6.39,0,0,1,1.56,2,5.61,5.61,0,0,1,.58,2.65Zm-1.6-39.25a9.42,9.42,0,0,1-3-2.6,10.92,10.92,0,0,1-1.81-3.7,15.81,15.81,0,0,1-.59-4.29,13.05,13.05,0,0,1,.66-4.14,10.39,10.39,0,0,1,1.94-3.48,9.59,9.59,0,0,1,3.08-2.37,9.27,9.27,0,0,1,4.12-.89,9.34,9.34,0,0,1,7.25,3.26,10.39,10.39,0,0,1,1.94,3.48,13.05,13.05,0,0,1,.66,4.14,15.81,15.81,0,0,1-.59,4.29,10.62,10.62,0,0,1-1.84,3.7,9.47,9.47,0,0,1-3.11,2.6,9.26,9.26,0,0,1-4.36,1A9,9,0,0,1,156.29,147.11Zm25.16,36.19a10.29,10.29,0,0,1-1.59,3.43,8.5,8.5,0,0,1-2.7,2.43,8,8,0,0,1-3.82,1,9.53,9.53,0,0,1-3.37-.5,15.61,15.61,0,0,1-3.08-1.5v12.73l-3.53-1.28,0-28.17a10.71,10.71,0,0,1,2.28-1.84,14.68,14.68,0,0,1,3.08-1.3,17.11,17.11,0,0,1,4.63-.64l.05.05a7.11,7.11,0,0,1,3.8.89,7.9,7.9,0,0,1,2.64,2.54,11.72,11.72,0,0,1,1.57,3.73,18.86,18.86,0,0,1,.52,4.46A15.6,15.6,0,0,1,181.45,183.3Zm-1.37-54.74c-.87.34-1.19.71-2.19,1.1v18.12h-3V129.22c0-.65,1.57-1.23,2.44-1.74a11.21,11.21,0,0,1,2.89-1.2,19.29,19.29,0,0,1,3-.61,10.28,10.28,0,0,1,3.63.22,7.61,7.61,0,0,1,3.5,1.79,4.64,4.64,0,0,1,1.54,3.55v16.55h-4V133a4.72,4.72,0,0,0-1.34-3.79,5.25,5.25,0,0,0-3.79-1.25A7.82,7.82,0,0,0,180.08,128.56Zm21.81,57.8a13.41,13.41,0,0,0-2,1.47,12.76,12.76,0,0,1-2.3,1.18,14.64,14.64,0,0,1-2.67.78,13.18,13.18,0,0,1-3.06.25,6.88,6.88,0,0,1-2.76-.56,7,7,0,0,1-3.68-3.76,7,7,0,0,1,.07-5.57,5.86,5.86,0,0,1,1.57-2.1,6.33,6.33,0,0,1,2.32-1.06,9.05,9.05,0,0,1,2.89-.21h5.59v-2.59a3.65,3.65,0,0,0-.27-1.7,4,4,0,0,0-1-1.31,4.47,4.47,0,0,0-1.46-.84,5.15,5.15,0,0,0-1.73-.29,10,10,0,0,0-2.9.39,16.68,16.68,0,0,0-2.72,1.12l-.88-2.05a15.55,15.55,0,0,1,3.58-1.45,15.92,15.92,0,0,1,3.87-.42,7.93,7.93,0,0,1,2.62.45,7.16,7.16,0,0,1,2.28,1.24,7.08,7.08,0,0,1,1.78,2,5.75,5.75,0,0,1,.8,2.65Z"/><path class="cls-1" d="M166.36,139.7a23.48,23.48,0,0,0,.22-3.2,15,15,0,0,0-.29-2.91,9.17,9.17,0,0,0-1-2.64,6.21,6.21,0,0,0-1.84-2,5.66,5.66,0,0,0-2.87-.88,5.75,5.75,0,0,0-3,.88,6,6,0,0,0-1.79,2,8.79,8.79,0,0,0-.88,2.78,21.9,21.9,0,0,0-.22,3.05h.05a18.37,18.37,0,0,0,.27,3.06,9.89,9.89,0,0,0,1,2.93,6.12,6.12,0,0,0,1.83,2.22,4.64,4.64,0,0,0,2.87.86,4.75,4.75,0,0,0,3-.91,6.15,6.15,0,0,0,1.79-2.25A10.09,10.09,0,0,0,166.36,139.7Z"/><path class="cls-1" d="M193.31,178.57a5.64,5.64,0,0,0-3.45,1.13,3.73,3.73,0,0,0-1.38,3.13,4.64,4.64,0,0,0,1.38,3.31,4.85,4.85,0,0,0,3.55,1.5,6.17,6.17,0,0,0,2.78-.62c.86-.4,1.7-.79,1.7-1.15v-7.35l-2,0Z"/><path class="cls-1" d="M149.75,178.57a5.64,5.64,0,0,0-3.45,1.13,3.73,3.73,0,0,0-1.38,3.13,4.64,4.64,0,0,0,1.38,3.31,4.85,4.85,0,0,0,3.55,1.5,7.44,7.44,0,0,0,3.06-.62c.86-.4,1-.79,2-1.15v-7.35c-1,0-1.47,0-2.32,0Z"/><path class="cls-2" d="M247.53,77.11q-1.42.12-2.64.12-6.79,0-10.59-3.25a11.21,11.21,0,0,1-3.78-9V33.45H225v-5h5.48V15l8-2.85V28.41h9v5h-9V64.8q0,4.5,2.42,6.38c1.38,1,3.58,1.61,6.58,1.76Z"/><path class="cls-2" d="M296.05,76.46h-8V45.53a14.65,14.65,0,0,0-2.2-8.12,8,8,0,0,0-7.06-3.84q-5.52,0-13.78,5.81V76.46h-8V2.52L265,0V33.67a27.94,27.94,0,0,1,16.78-5.59,13.39,13.39,0,0,1,10.32,4.28A15.1,15.1,0,0,1,296.05,43V76.46Z"/><path class="cls-2" d="M338.64,51.5q0-7.55-2.86-12.47a12,12,0,0,0-10.53-6.34q-13.17.77-13.17,18.87c0,5.53.91,10.15,2.76,13.86,2.35,4.72,5.87,7.06,10.57,7Q338.64,72.29,338.64,51.5Zm8.77.06q0,10.74-5.48,17.88-6,8-16.68,8t-16.46-8q-5.39-7.14-5.38-17.88,0-10.1,5.82-17a20,20,0,0,1,16.13-7.35,20.36,20.36,0,0,1,16.24,7.35Q347.42,41.47,347.41,51.56Z"/><path class="cls-2" d="M393.35,76.46h-8V43.77q0-5.37-3.23-8.4a11.79,11.79,0,0,0-8.62-2.9,19.24,19.24,0,0,0-10.86,3.73V76.46h-8V35.21a39.57,39.57,0,0,1,12.73-6.58A39.12,39.12,0,0,1,377,27.2a25,25,0,0,1,5.38.56,15.47,15.47,0,0,1,7.68,4,10.76,10.76,0,0,1,3.29,7.9Z"/><path class="cls-2" d="M197.94,147.65V128.73h-2.3v-2.5h2.3v-2.45c0-3.69.85-6.37,2.55-8.06a9.31,9.31,0,0,1,6.86-2.52h0a7,7,0,0,1,1.38.12,8,8,0,0,1,1.22.37l-.78,2.15-.44-.14a6.63,6.63,0,0,0-3.92.22,4.81,4.81,0,0,0-2.16,1.88,7.08,7.08,0,0,0-.93,2.8,23.81,23.81,0,0,0-.2,2.94l0,2.69h4.94v2.5h-4.94v18.92Z"/><path class="cls-2" d="M226.6,145.69c-.55.36-1.12.69-1.71,1a12.14,12.14,0,0,1-2,.81,15,15,0,0,1-2.45.49,13.78,13.78,0,0,1-2.57,0,9.93,9.93,0,0,1-2.5-.52,6.06,6.06,0,0,1-2.14-1.25,10.37,10.37,0,0,1-2.76-3.9,13.08,13.08,0,0,1-1-5.13,19,19,0,0,1,.47-4.18,11.71,11.71,0,0,1,1.49-3.68,8.28,8.28,0,0,1,2.67-2.63,7.54,7.54,0,0,1,4-1,8.77,8.77,0,0,1,3.79.74,6.6,6.6,0,0,1,2.55,2.14,9.31,9.31,0,0,1,1.45,3.4,23.93,23.93,0,0,1,.49,4.5H213.27a13,13,0,0,0,.27,3.82,8.24,8.24,0,0,0,1.3,2.92,6.29,6.29,0,0,0,2.13,1.86,5.4,5.4,0,0,0,2.77.61,11.8,11.8,0,0,0,3.26-.58,24.48,24.48,0,0,0,2.77-1.18Zm-3.77-11.23a10.14,10.14,0,0,0-.27-2.32,7.7,7.7,0,0,0-.81-2.09,4.31,4.31,0,0,0-1.42-1.49,3.78,3.78,0,0,0-2.06-.56,4.11,4.11,0,0,0-2.18.56,4.55,4.55,0,0,0-1.47,1.49,8.21,8.21,0,0,0-.86,2.06,14.66,14.66,0,0,0-.39,2.31h9.41Z"/><path class="cls-2" d="M231.5,147.65V129.81a11.64,11.64,0,0,1,5.1-3.33,18.23,18.23,0,0,1,3.28-.86,12,12,0,0,1,3.92.12l-.73,1.45q-.39.77-.69,1.44l-1.08-.19a4.93,4.93,0,0,0-.93-.1h-.05a7.38,7.38,0,0,0-3,.56,9.68,9.68,0,0,0-2.23,1.4v17.35Z"/><path class="cls-2" d="M263.35,145.69c-.55.36-1.13.69-1.71,1a12.14,12.14,0,0,1-2,.81,15,15,0,0,1-2.45.49,13.87,13.87,0,0,1-2.58,0,9.94,9.94,0,0,1-2.49-.52,6,6,0,0,1-2.14-1.25,10.37,10.37,0,0,1-2.76-3.9,13.08,13.08,0,0,1-1-5.13,19,19,0,0,1,.47-4.18,11.71,11.71,0,0,1,1.49-3.68,8.28,8.28,0,0,1,2.67-2.63,7.54,7.54,0,0,1,4-1,8.77,8.77,0,0,1,3.79.74,6.6,6.6,0,0,1,2.55,2.14,9.31,9.31,0,0,1,1.45,3.4,23.93,23.93,0,0,1,.49,4.5H250a13,13,0,0,0,.27,3.82,8.07,8.07,0,0,0,1.3,2.92,6.29,6.29,0,0,0,2.13,1.86,5.4,5.4,0,0,0,2.77.61,11.8,11.8,0,0,0,3.26-.58,24.48,24.48,0,0,0,2.77-1.18Zm-3.77-11.23a10.14,10.14,0,0,0-.27-2.32,7.7,7.7,0,0,0-.81-2.09,4.31,4.31,0,0,0-1.42-1.49A3.78,3.78,0,0,0,255,128a4.11,4.11,0,0,0-2.18.56,4.55,4.55,0,0,0-1.47,1.49,8.21,8.21,0,0,0-.86,2.06,14.66,14.66,0,0,0-.39,2.31h9.41Z"/><path class="cls-2" d="M281.48,147.65V133a4.78,4.78,0,0,0-1.47-3.79,5.32,5.32,0,0,0-3.82-1.25,8.1,8.1,0,0,0-2.72.56,10,10,0,0,0-2.13,1.1v18h-3.58V129.22q1.38-1,2.67-1.74a12.2,12.2,0,0,1,3-1.2,19.91,19.91,0,0,1,3.06-.61,10.38,10.38,0,0,1,3.65.22,7.33,7.33,0,0,1,3.43,1.79,4.59,4.59,0,0,1,1.47,3.55v16.42Z"/><path class="cls-2" d="M305.54,145.83a13.6,13.6,0,0,1-3.55,1.64,14.59,14.59,0,0,1-4.34.62,7,7,0,0,1-3.67-1,8.93,8.93,0,0,1-2.73-2.5,11.37,11.37,0,0,1-1.69-3.5,13.82,13.82,0,0,1-.58-4,14.24,14.24,0,0,1,1.18-5.76,9.92,9.92,0,0,1,3.42-4.28,8,8,0,0,1,2.5-1.16,9.89,9.89,0,0,1,2.82-.32,12.11,12.11,0,0,1,2.89.47,11,11,0,0,1,2.72,1.2l-1,1.91a13.82,13.82,0,0,0-2.5-.9,7.57,7.57,0,0,0-2.64-.27,4.45,4.45,0,0,0-2.55.95,6.9,6.9,0,0,0-1.79,2.16,11.54,11.54,0,0,0-1.08,2.89,14.08,14.08,0,0,0-.36,3.11,11.63,11.63,0,0,0,.39,3,9.61,9.61,0,0,0,1.15,2.72,6.77,6.77,0,0,0,1.91,2,4.53,4.53,0,0,0,2.67.81,7.84,7.84,0,0,0,3.09-.49c.91-.36,1.86-.77,2.84-1.23Z"/><path class="cls-2" d="M325.63,145.69c-.56.36-1.13.69-1.72,1a11.78,11.78,0,0,1-2,.81,14.76,14.76,0,0,1-2.45.49,13.76,13.76,0,0,1-2.57,0,10,10,0,0,1-2.5-.52,6,6,0,0,1-2.13-1.25,10.39,10.39,0,0,1-2.77-3.9,13.07,13.07,0,0,1-1-5.13,19,19,0,0,1,.46-4.18,11.49,11.49,0,0,1,1.5-3.68,8.18,8.18,0,0,1,2.67-2.63,7.48,7.48,0,0,1,4-1,8.82,8.82,0,0,1,3.8.74,6.6,6.6,0,0,1,2.55,2.14,9.13,9.13,0,0,1,1.44,3.4,22.38,22.38,0,0,1,.49,4.5H312.3a12.33,12.33,0,0,0,.27,3.82,8.07,8.07,0,0,0,1.3,2.92,6.29,6.29,0,0,0,2.13,1.86,5.38,5.38,0,0,0,2.77.61,11.8,11.8,0,0,0,3.26-.58A24.48,24.48,0,0,0,324.8,144Zm-3.77-11.23a10.14,10.14,0,0,0-.27-2.32,7.7,7.7,0,0,0-.81-2.09,4.31,4.31,0,0,0-1.42-1.49,3.81,3.81,0,0,0-2.06-.56,4.08,4.08,0,0,0-2.18.56,4.37,4.37,0,0,0-1.47,1.49,7.86,7.86,0,0,0-.86,2.06,14.66,14.66,0,0,0-.39,2.31h9.41Z"/><path class="cls-3" d="M73.9,26.59V37.3A15.46,15.46,0,0,1,58.83,52.58H37.74a12.3,12.3,0,0,0-12,12.26v23c0,6.53,5.68,10.37,12.05,12.25a40.47,40.47,0,0,0,24.09,0c6.07-1.76,12.06-5.3,12.06-12.25V78.62H49.8V75.55H86c7,0,9.62-4.89,12-12.23,2.52-7.55,2.41-14.81,0-24.5-1.73-7-5-12.23-12-12.23ZM63.48,84.74A4.6,4.6,0,1,1,59,89.32,4.55,4.55,0,0,1,63.48,84.74Z"/></g></g></svg>