<svg height="18px" version="1.1" id="Capa_1" xmlns="http://www.w3.org/2000/svg" xmlns:xlink="http://www.w3.org/1999/xlink" x="0px" y="0px"
	 viewBox="0 0 50.425 50.425" style="enable-background:new 0 0 50.425 50.425" xml:space="preserve">
<g>
	<g>
		<path d="M41.05,40.081c-1.782,0-3.232,1.45-3.232,3.232v7.111l10.343-10.343H41.05z"/>
	</g>
</g>
<g>
	<g>
		<path d="M11.313,6.465V43.96c0,3.556,2.909,6.465,6.465,6.465h16.808v-7.111c0-3.556,2.909-6.465,6.465-6.465h7.111l0.001-30.384
			H11.313z M30.706,32.646H19.07v-3.232h11.636V32.646z M40.404,24.889H19.07v-3.232h21.333V24.889z M40.404,17.131H19.07v-3.232
			h21.333V17.131z"/>
	</g>
</g>
<g>
	<g>
		<path d="M2.263,0v37.495c0,3.337,2.563,6.105,5.818,6.432V3.232h31.032V0H2.263z"/>
	</g>
</g>
<g>
</g>
<g>
</g>
<g>
</g>
<g>
</g>
<g>
</g>
<g>
</g>
<g>
</g>
<g>
</g>
<g>
</g>
<g>
</g>
<g>
</g>
<g>
</g>
<g>
</g>
<g>
</g>
<g>
</g>
</svg>
