<svg height="18px" version="1.1" id="Capa_1" xmlns="http://www.w3.org/2000/svg" xmlns:xlink="http://www.w3.org/1999/xlink" x="0px" y="0px"
	 viewBox="0 0 480 480" style="enable-background:new 0 0 480 480" xml:space="preserve">
<g>
	<g>
		<path d="M400,40H0v400h480V40H400z M64,424H16v-48h48V424z M64,360H16v-48h48V360z M64,296H16v-48h48V296z M64,232H16v-48h48V232z
			 M64,168H16v-48h48V168z M64,104H16V56h48V104z M400,424H80V56h320V424z M464,424h-48v-48h48V424z M464,360h-48v-48h48V360z
			 M464,296h-48v-48h48V296z M464,232h-48v-48h48V232z M464,168h-48v-48h48V168z M464,104h-48V56h48V104z"/>
	</g>
</g>
<g>
	<g>
		<path d="M302.971,236.003c-0.708-1.238-1.734-2.263-2.971-2.971l-112-64c-3.826-2.209-8.719-0.898-10.928,2.928
			c-0.709,1.228-1.079,2.622-1.072,4.04v128c0.003,2.855,1.527,5.492,4,6.92c2.475,1.429,5.525,1.429,8,0l112-64
			C303.835,244.726,305.165,239.839,302.971,236.003z M192,290.208V189.792L279.872,240L192,290.208z"/>
	</g>
</g>
<g>
</g>
<g>
</g>
<g>
</g>
<g>
</g>
<g>
</g>
<g>
</g>
<g>
</g>
<g>
</g>
<g>
</g>
<g>
</g>
<g>
</g>
<g>
</g>
<g>
</g>
<g>
</g>
<g>
</g>
</svg>
