<svg width="285" height="80" viewBox="0 0 285 80" fill="none" xmlns="http://www.w3.org/2000/svg">
<path d="M88.79 30.7289V5.58901C88.7763 5.45938 88.7918 5.32835 88.8353 5.20547C88.8788 5.0826 88.9492 4.97099 89.0414 4.87882C89.1336 4.78665 89.2452 4.71623 89.368 4.67273C89.4909 4.62923 89.622 4.61372 89.7516 4.62736H103.648C111.464 4.62736 114.183 7.92442 114.183 14.3233V15.1692C114.183 21.3729 111.464 24.706 103.648 24.706H94.1043V30.7289C94.1181 30.8583 94.1027 30.9891 94.0592 31.1117C94.0156 31.2343 93.9451 31.3455 93.8528 31.4372C93.7604 31.5288 93.6487 31.5985 93.5257 31.6411C93.4028 31.6837 93.2719 31.6981 93.1426 31.6833H89.7371C89.609 31.6958 89.4797 31.6797 89.3586 31.636C89.2375 31.5924 89.1277 31.5223 89.037 31.431C88.9463 31.3396 88.8771 31.2292 88.8344 31.1077C88.7917 30.9863 88.7765 30.8569 88.79 30.7289ZM103.251 19.652C107.198 19.652 108.883 18.8061 108.883 15.1258V14.3233C108.883 10.455 107.278 9.72475 103.251 9.72475H94.1187V19.6376L103.251 19.652Z" fill="white"/>
<path d="M120.17 36.9904V34.1922C120.155 34.0633 120.169 33.9325 120.212 33.8099C120.255 33.6872 120.324 33.5758 120.416 33.484C120.508 33.3922 120.619 33.3224 120.742 33.2797C120.865 33.2371 120.995 33.2228 121.124 33.2378H130.82C133.12 33.2378 133.857 32.6666 133.9 31.235V27.7355C133.018 29.4636 131.413 30.3384 128.347 30.3384H124.899C118.724 30.3384 116.945 27.3161 116.945 21.8355V11.1057C116.932 10.9761 116.947 10.8451 116.991 10.7222C117.034 10.5993 117.104 10.4877 117.197 10.3956C117.289 10.3034 117.4 10.233 117.523 10.1895C117.646 10.146 117.777 10.1305 117.907 10.1441H121.052C121.181 10.1302 121.312 10.1457 121.435 10.1892C121.557 10.2327 121.669 10.3033 121.76 10.3956C121.852 10.4879 121.922 10.5997 121.964 10.7226C122.007 10.8456 122.021 10.9765 122.006 11.1057V22.3706C122.006 25.0531 122.73 25.6315 124.956 25.6315H130.9C132.932 25.6315 133.886 25.1326 133.886 22.3706V11.1057C133.872 10.9761 133.888 10.8451 133.931 10.7222C133.975 10.5993 134.045 10.4877 134.137 10.3956C134.23 10.3034 134.341 10.233 134.464 10.1895C134.587 10.146 134.718 10.1305 134.848 10.1441H137.986C138.115 10.1305 138.246 10.146 138.369 10.1895C138.492 10.233 138.604 10.3034 138.696 10.3956C138.788 10.4877 138.858 10.5993 138.902 10.7222C138.945 10.8451 138.961 10.9761 138.947 11.1057V30.7289C138.947 36.9976 137.125 37.9592 130.806 37.9592H121.124C120.994 37.9748 120.862 37.9602 120.738 37.9168C120.614 37.8734 120.502 37.8022 120.41 37.7087C120.318 37.6152 120.248 37.5018 120.207 37.3773C120.165 37.2528 120.153 37.1205 120.17 36.9904Z" fill="white"/>
<path d="M143.024 22.6021V14.3812C143.024 8.74154 145.692 5.21313 151.932 5.21313H160.305C166.545 5.21313 169.205 8.74154 169.205 14.3812V14.4897C169.22 14.6161 169.207 14.7442 169.165 14.8645C169.124 14.9848 169.055 15.0943 168.966 15.1846C168.876 15.2749 168.767 15.3439 168.647 15.3863C168.527 15.4287 168.399 15.4435 168.273 15.4296H164.925C164.325 15.4296 163.985 15.1693 163.985 14.7933V14.1932C163.985 10.9251 162.901 10.2093 160.305 10.2093H151.932C149.336 10.2093 148.245 10.9323 148.245 14.1932V22.7901C148.245 26.0221 149.416 26.7379 151.932 26.7379H160.305C162.821 26.7379 163.985 26.0148 163.985 22.7901V22.0671C163.971 21.9403 163.986 21.8121 164.029 21.6918C164.071 21.5715 164.14 21.4623 164.23 21.3721C164.32 21.2819 164.43 21.2131 164.55 21.1707C164.67 21.1283 164.798 21.1134 164.925 21.1271H168.273C168.873 21.1271 169.205 21.3874 169.205 21.8502V22.5732C169.205 28.1695 166.545 31.7051 160.305 31.7051H151.932C145.692 31.734 143.024 28.1984 143.024 22.6021Z" fill="white"/>
<path d="M172.438 23.1734V18.5387C172.438 13.2099 174.195 10.1443 180.392 10.1443H186.747C192.922 10.1443 194.701 13.2099 194.701 18.5387V23.1734C194.701 28.654 192.936 31.6835 186.747 31.6835H180.392C174.195 31.6835 172.438 28.654 172.438 23.1734ZM186.617 26.9693C188.916 26.9693 189.603 26.3547 189.603 23.7157V18.076C189.603 15.4731 188.953 14.8585 186.617 14.8585H180.486C178.143 14.8585 177.492 15.4731 177.492 18.076V23.7157C177.492 26.3547 178.216 26.9693 180.486 26.9693H186.617Z" fill="white"/>
<path d="M220.056 18.6542V30.7289C220.07 30.8583 220.055 30.9891 220.011 31.1117C219.968 31.2342 219.897 31.3455 219.805 31.4372C219.713 31.5288 219.601 31.5985 219.478 31.6411C219.355 31.6837 219.224 31.6981 219.095 31.6833H215.935C215.806 31.6981 215.675 31.6837 215.552 31.6411C215.429 31.5985 215.317 31.5288 215.225 31.4372C215.133 31.3455 215.062 31.2342 215.018 31.1117C214.975 30.9891 214.96 30.8583 214.973 30.7289V18.1192C214.973 15.4729 214.25 14.8583 211.987 14.8583H206.622C204.554 14.8583 203.629 15.3933 203.629 18.1192V30.7289C203.643 30.8576 203.627 30.9877 203.584 31.1097C203.541 31.2317 203.471 31.3425 203.38 31.434C203.288 31.5255 203.177 31.5954 203.055 31.6385C202.933 31.6817 202.803 31.6969 202.675 31.6833H199.529C199.401 31.6969 199.271 31.6817 199.149 31.6385C199.027 31.5954 198.916 31.5255 198.824 31.434C198.733 31.3425 198.663 31.2317 198.62 31.1097C198.577 30.9877 198.561 30.8576 198.575 30.7289V11.1057C198.56 10.9765 198.575 10.8456 198.617 10.7226C198.66 10.5997 198.73 10.4879 198.821 10.3956C198.913 10.3033 199.024 10.2327 199.147 10.1892C199.269 10.1457 199.4 10.1302 199.529 10.1441H202.704C202.833 10.1302 202.964 10.1457 203.086 10.1892C203.209 10.2327 203.32 10.3033 203.412 10.3956C203.503 10.4879 203.573 10.5997 203.616 10.7226C203.658 10.8456 203.673 10.9765 203.658 11.1057V12.6386C204.583 11.0262 206.268 10.1441 209.218 10.1441H212.11C218.234 10.1441 220.056 13.1736 220.056 18.6542Z" fill="white"/>
<path d="M230.389 22.3705V19.4205C230.374 19.2916 230.388 19.1609 230.431 19.0382C230.473 18.9156 230.543 18.8042 230.635 18.7123C230.727 18.6205 230.838 18.5507 230.961 18.508C231.083 18.4654 231.214 18.4511 231.343 18.4661H234.756C234.885 18.4513 235.016 18.4657 235.139 18.5083C235.262 18.5509 235.374 18.6207 235.466 18.7123C235.558 18.8039 235.629 18.9152 235.672 19.0378C235.716 19.1604 235.731 19.2912 235.717 19.4205V22.5657C235.717 25.8555 236.903 26.5858 239.47 26.5858H246.939C249.513 26.5858 250.662 25.8628 250.662 22.5657V5.5889C250.648 5.45965 250.662 5.32872 250.705 5.2058C250.747 5.08288 250.817 4.97109 250.909 4.87875C251 4.78641 251.112 4.71589 251.234 4.67235C251.357 4.62881 251.488 4.61339 251.617 4.62725H255.066C255.195 4.61361 255.326 4.62911 255.449 4.67262C255.572 4.71612 255.684 4.78653 255.776 4.8787C255.868 4.97088 255.939 5.08248 255.982 5.20536C256.026 5.32823 256.041 5.45926 256.027 5.5889V22.3705C256.027 28.0825 253.265 31.6832 246.939 31.6832H239.47C233.107 31.6832 230.389 28.0825 230.389 22.3705Z" fill="white"/>
<path d="M259.593 30.7289V5.58901C259.579 5.45938 259.595 5.32835 259.638 5.20547C259.682 5.0826 259.752 4.97099 259.844 4.87882C259.936 4.78665 260.048 4.71623 260.171 4.67273C260.294 4.62923 260.425 4.61372 260.554 4.62736H274.466C282.282 4.62736 285 7.92442 285 14.3233V15.1692C285 21.3729 282.282 24.706 274.466 24.706H264.922V30.7289C264.935 30.8583 264.92 30.9891 264.876 31.1117C264.833 31.2343 264.762 31.3455 264.67 31.4372C264.578 31.5288 264.466 31.5985 264.343 31.6411C264.22 31.6837 264.089 31.6981 263.96 31.6833H260.547C260.418 31.697 260.288 31.6817 260.166 31.6385C260.044 31.5954 259.934 31.5256 259.842 31.434C259.751 31.3425 259.681 31.2317 259.638 31.1097C259.594 30.9877 259.579 30.8576 259.593 30.7289ZM274.053 19.652C278.001 19.652 279.693 18.8061 279.693 15.1258V14.3233C279.693 10.455 278.081 9.72475 274.053 9.72475H264.922V19.6376L274.053 19.652Z" fill="white"/>
<path d="M87.3441 74.2485V70.8358C87.3401 70.6035 87.3984 70.3745 87.5128 70.1723C87.6272 69.9701 87.7937 69.8023 87.9949 69.6862L103.323 60.453C106.215 58.725 106.938 58.1538 106.938 56.3534C106.938 53.859 105.984 53.2444 102.991 53.2444H96.4182C93.6635 53.2444 92.6657 53.8951 92.6657 57.3078V57.6115C92.6793 57.7411 92.6638 57.8722 92.6203 57.9951C92.5768 58.1179 92.5064 58.2295 92.4142 58.3217C92.3221 58.4139 92.2105 58.4843 92.0876 58.5278C91.9647 58.5713 91.8337 58.5868 91.704 58.5731H88.2913C87.684 58.5731 87.3369 58.3851 87.3369 58.0381V57.503C87.3369 51.7188 89.2891 48.147 96.4182 48.147H103.128C109.794 48.147 112.209 51.0391 112.209 55.9702C112.209 60.5687 110.293 61.8268 104.979 64.972L96.3025 70.1055H111.175C111.305 70.0917 111.436 70.1071 111.558 70.1506C111.681 70.1942 111.792 70.2647 111.884 70.357C111.975 70.4494 112.045 70.5612 112.088 70.6841C112.13 70.807 112.145 70.9379 112.13 71.0672V74.2485C112.143 74.3772 112.128 74.5073 112.085 74.6293C112.042 74.7514 111.972 74.8622 111.88 74.9537C111.789 75.0452 111.678 75.115 111.556 75.1582C111.434 75.2013 111.304 75.2166 111.175 75.2029H88.2986C88.1699 75.2166 88.0398 75.2013 87.9177 75.1582C87.7957 75.115 87.6849 75.0452 87.5934 74.9537C87.5019 74.8622 87.432 74.7514 87.3889 74.6293C87.3458 74.5073 87.3305 74.3772 87.3441 74.2485Z" fill="white"/>
<path d="M115.015 65.9119V57.5248C115.015 51.7405 117.74 48.1687 124.096 48.1687H133.185C139.54 48.1687 142.266 51.7839 142.266 57.5248V65.9119C142.266 71.6239 139.54 75.2246 133.185 75.2246H124.096C117.74 75.2029 115.015 71.6022 115.015 65.9119ZM133.185 70.1273C135.751 70.1273 136.937 69.4042 136.937 66.1072V57.3078C136.937 53.9746 135.867 53.2444 133.185 53.2444H124.096C121.457 53.2444 120.343 53.9674 120.343 57.3078V66.0855C120.343 69.3825 121.529 70.1055 124.096 70.1055L133.185 70.1273Z" fill="white"/>
<path d="M145.144 74.2485V70.8358C145.14 70.6035 145.198 70.3744 145.312 70.1723C145.427 69.9701 145.593 69.8023 145.794 69.6862L161.123 60.453C164.015 58.725 164.738 58.1538 164.738 56.3534C164.738 53.859 163.776 53.2444 160.783 53.2444H154.261C151.506 53.2444 150.509 53.8951 150.509 57.3078V57.6115C150.522 57.7411 150.507 57.8722 150.463 57.9951C150.42 58.1179 150.349 58.2295 150.257 58.3217C150.165 58.4139 150.053 58.4843 149.93 58.5278C149.808 58.5713 149.677 58.5868 149.547 58.5731H146.141C145.527 58.5731 145.18 58.3851 145.18 58.0381V57.503C145.18 51.7188 147.132 48.147 154.261 48.147H160.971C167.637 48.147 170.052 51.0391 170.052 55.9702C170.052 60.5687 168.136 61.8268 162.822 64.972L154.145 70.1055H169.018C169.148 70.0917 169.278 70.1071 169.401 70.1506C169.524 70.1942 169.635 70.2647 169.726 70.357C169.818 70.4494 169.888 70.5612 169.93 70.6841C169.973 70.807 169.987 70.9379 169.973 71.0672V74.2485C169.986 74.3772 169.971 74.5073 169.928 74.6293C169.885 74.7514 169.815 74.8622 169.723 74.9537C169.632 75.0452 169.521 75.115 169.399 75.1582C169.277 75.2013 169.147 75.2166 169.018 75.2029H146.105C145.976 75.2177 145.845 75.2033 145.722 75.1607C145.599 75.1181 145.487 75.0484 145.395 74.9567C145.303 74.8651 145.232 74.7539 145.189 74.6313C145.145 74.5087 145.13 74.3779 145.144 74.2485Z" fill="white"/>
<path d="M177.608 74.2486V56.8451H173.009C172.88 56.8602 172.749 56.8459 172.627 56.8032C172.504 56.7606 172.393 56.6908 172.301 56.5989C172.209 56.5071 172.139 56.3957 172.097 56.273C172.054 56.1504 172.04 56.0197 172.055 55.8907V53.2444C172.04 53.1154 172.054 52.9848 172.097 52.8621C172.139 52.7395 172.209 52.628 172.301 52.5362C172.393 52.4444 172.504 52.3746 172.627 52.3319C172.749 52.2893 172.88 52.2749 173.009 52.29H174.889C177.781 52.29 177.839 52.0225 177.839 49.4557V49.1087C177.824 48.9794 177.839 48.8485 177.881 48.7256C177.924 48.6027 177.993 48.4909 178.085 48.3985C178.177 48.3062 178.288 48.2357 178.411 48.1921C178.533 48.1486 178.664 48.1332 178.793 48.147H181.975C182.104 48.1334 182.235 48.1489 182.358 48.1924C182.481 48.2359 182.593 48.3063 182.685 48.3985C182.777 48.4907 182.847 48.6023 182.891 48.7251C182.934 48.848 182.95 48.979 182.936 49.1087V74.2486C182.95 74.3779 182.935 74.5087 182.891 74.6313C182.848 74.7539 182.777 74.8652 182.685 74.9568C182.592 75.0484 182.481 75.1182 182.358 75.1608C182.235 75.2034 182.104 75.2178 181.975 75.203H178.569C178.44 75.2178 178.309 75.2034 178.186 75.1608C178.063 75.1182 177.951 75.0484 177.859 74.9568C177.767 74.8652 177.696 74.7539 177.653 74.6313C177.609 74.5087 177.594 74.3779 177.608 74.2486Z" fill="white"/>
<path d="M46.3624 24.6987C45.6394 31.5242 39.3129 32.6087 34.7939 32.2761C15.0551 30.83 4.318 39.7162 0.905273 50.1134C4.93981 41.6756 17.3037 35.2839 29.3061 35.8045C39.0598 36.2311 42.8123 35.9925 45.1188 32.9992C44.6084 34.4505 43.6794 35.7182 42.4492 36.6421C41.2191 37.566 39.7427 38.1048 38.2066 38.1905C42.1472 38.3424 47.6567 36.7445 48.8352 32.5147C49.1797 31.1105 49.1312 29.6385 48.6951 28.2599C48.2589 26.8814 47.4519 25.6493 46.3624 24.6987Z" fill="white"/>
<path d="M34.5988 38.5161C26.3996 38.3281 21.4251 38.4366 15.5107 41.0323C6.55954 44.9439 0.464366 52.1742 0.023315 59.7299C-0.533421 69.3535 8.85879 80.1557 30.5354 77.6757C18.157 77.3214 7.61517 68.1822 11.3533 56.4112C14.3611 46.9105 25.3657 39.4922 34.5988 38.5161Z" fill="white"/>
<path d="M14.6143 59.9397C17.8028 44.2499 37.7514 37.8944 49.7754 40.0924C65.3857 42.9845 71.3725 54.6616 66.1955 65.7023C63.5781 71.2841 52.7326 80.1051 34.006 79.5701C45.2131 78.0373 54.3088 69.4476 54.5619 60.3157C55.1042 40.6058 21.2589 39.673 14.6143 59.9397Z" fill="white"/>
<path d="M49.6019 56.5125C51.0914 60.0409 49.7972 66.7073 43.8972 70.843C32.2202 79.035 18.7573 73.6194 18.2873 64.6321C17.5643 50.1714 40.3543 43.3749 48.0547 53.7071C43.2971 49.1737 37.0067 51.1331 34.0712 52.8901C30.9983 54.7193 27.8965 58.6744 29.2847 62.7234C31.6707 69.7368 43.1019 69.6066 48.0257 63.1499C48.7759 62.2363 49.3078 61.1636 49.581 60.0134C49.8541 58.8632 49.8613 57.6658 49.6019 56.5125Z" fill="white"/>
<path d="M46.2183 18.5024C44.6059 16.4924 43.7889 15.162 43.2177 14.3667C41.0486 11.3661 39.7399 10.1875 37.8021 9.1825C37.2816 8.91498 35.8716 8.24259 34.2737 7.54848C34.0868 7.34937 33.8696 7.18099 33.6302 7.04959C32.9545 6.69966 32.2184 6.48128 31.4611 6.40607C30.4739 5.94545 29.4101 5.67093 28.3232 5.59628C27.5905 5.77584 26.9191 6.14775 26.3782 6.67359L25.1201 5.5529C23.045 3.68747 22.5967 2.48001 22.2714 0C22.1034 1.41727 22.3547 2.85267 22.9944 4.1285C21.2953 3.13071 18.7646 3.54284 18.7646 3.54284C19.7697 3.54284 21.57 3.49226 24.5489 6.14579C24.9538 6.50731 25.366 6.8688 25.7709 7.25201C25.3472 7.70356 24.9783 8.20349 24.6718 8.74146C24.2597 9.52234 25.0044 11.0696 25.9878 12.5663C26.1588 13.0802 26.4023 13.5672 26.7108 14.0124C26.9789 14.3747 27.328 14.6693 27.7303 14.8728C28.0846 15.3138 28.3955 15.6826 28.6196 15.9429C29.5492 17.1709 30.633 18.2742 31.8443 19.2255C33.3338 20.2956 35.3655 20.5992 37.5635 21.5103C38.5389 21.8672 39.3737 22.528 39.9448 23.3954C40.516 24.2629 40.7933 25.2909 40.7357 26.3279C40.6782 27.3648 40.289 28.3559 39.6254 29.1548C38.9618 29.9538 38.059 30.5183 37.0502 30.7651C41.3884 30.7651 45.2494 26.6727 44.859 22.3273C47.6499 22.9491 50.4625 26.4341 50.1733 29.8975C50.7662 23.2528 47.7294 20.3606 46.2183 18.5024ZM29.1691 14.1642C28.9305 14.627 27.8966 14.2148 27.4266 13.5713C26.8337 12.7398 26.3421 11.1492 26.9422 11.0841C27.2242 11.0841 27.723 11.6553 28.193 12.2626C28.9377 13.2315 29.2776 13.9401 29.1763 14.1497L29.1691 14.1642ZM34.1219 9.03793C33.8761 9.33437 32.9289 8.76318 32.2854 8.35828C31.3382 7.77985 30.8393 7.44725 30.9695 7.17973C31.0996 6.9122 32.6975 7.28818 33.3121 7.63524C33.9267 7.9823 34.375 8.72701 34.1219 9.02345V9.03793Z" fill="white"/>
</svg>
