<svg width="30" height="25" viewBox="0 0 30 25" fill="none" xmlns="http://www.w3.org/2000/svg">
<path d="M30 2.89287C28.8968 3.38173 27.7116 3.71204 26.4657 3.86134C27.7513 3.0921 28.713 1.88142 29.1716 0.45519C27.9638 1.17261 26.6419 1.67759 25.2634 1.94819C24.3364 0.958403 23.1085 0.302358 21.7704 0.0819066C20.4324 -0.138545 19.059 0.0889323 17.8634 0.72902C16.6679 1.36911 15.7171 2.386 15.1588 3.6218C14.6004 4.85761 14.4656 6.2432 14.7754 7.56344C12.328 7.44056 9.93389 6.80446 7.74829 5.69641C5.5627 4.58836 3.63451 3.03314 2.08888 1.13166C1.56038 2.04332 1.2565 3.10031 1.2565 4.226C1.25591 5.23938 1.50546 6.23724 1.98302 7.13105C2.46057 8.02485 3.15136 8.78696 3.9941 9.34976C3.01675 9.31866 2.06096 9.05457 1.20629 8.57948V8.65875C1.20619 10.0801 1.69783 11.4576 2.59779 12.5577C3.49775 13.6578 4.7506 14.4126 6.14375 14.6942C5.2371 14.9395 4.28654 14.9757 3.36387 14.7999C3.75693 16.0228 4.52259 17.0922 5.55364 17.8584C6.5847 18.6246 7.82954 19.0492 9.11389 19.0727C6.93363 20.7843 4.24102 21.7127 1.46922 21.7086C0.978219 21.7087 0.487637 21.6801 0 21.6227C2.81354 23.4317 6.08871 24.3918 9.43363 24.3881C20.7566 24.3881 26.9466 15.0099 26.9466 6.8764C26.9466 6.61215 26.94 6.34526 26.9281 6.08102C28.1322 5.21029 29.1715 4.13205 29.9974 2.89684L30 2.89287Z" fill="#1097AA"/>
</svg>
