<?xml version="1.0" encoding="utf-8"?>
<!-- Generator: Adobe Illustrator 24.2.0, SVG Export Plug-In . SVG Version: 6.00 Build 0)  -->
<svg version="1.1" id="color_01" xmlns="http://www.w3.org/2000/svg" xmlns:xlink="http://www.w3.org/1999/xlink" x="0px" y="0px"
	 viewBox="0 0 2002 430" style="enable-background:new 0 0 2002 430;" xml:space="preserve">
<style type="text/css">
	.st0{fill-rule:evenodd;clip-rule:evenodd;fill:#9E9381;}
</style>
<path class="st0" d="M425.33,29.55c-12.06,0.25-24.28,0.25-36.1,0.21c-13.12,0.01-26.7-0.01-40,0.33c-1.08,0.18-3.76,2.21-4.29,3.32
	c-24.87,59.23-49.89,119.58-74.06,177.95l-18.65,44.98c-5.92,14.29-11.89,28.56-18.1,43.47l-15.05,36.07l-6.69-13.87
	c-0.86-1.77-1.58-3.23-2.21-4.5c-1.24-2.48-2.13-4.3-2.91-6.18l-26.64-64.47c-29.22-70.7-58.44-141.39-87.78-212.04
	c-0.76-1.84-1.89-3.61-2.66-4.57c-20.66-0.45-41-0.41-62.53-0.38l-8.9,0.01l44.42,107.37c37.22,89.99,74.44,179.97,111.54,270
	c1.82,4.43,3.11,5.3,8.14,5.14c24.66-0.51,48.83-0.5,71.83,0.01c4.73,0.19,6-0.75,7.91-5.42c34.84-85.15,70.48-171.62,104.96-255.24
	l6.68-16.2c1.26-3.08,2.76-6.06,4.33-9.21c0.78-1.54,1.59-3.18,2.45-4.96l6.33-13.14l6.17,13.23c0.84,1.82,1.6,3.41,2.29,4.86
	c1.39,2.91,2.52,5.29,3.53,7.72l15.95,38.55c31.54,76.24,64.16,155.1,96.05,232.73c2.53,6.18,4.23,7.35,10.17,7.17
	c24.46-0.89,48.46-0.57,70.76-0.1c4.49,0.16,5.62-0.37,7.73-5.49c32.87-79.94,66.51-161.11,99.04-239.61l33.44-80.73
	c6.02-14.53,11.96-29.08,18.1-44.11l5.17-12.66l-9.08-0.02c-21.29-0.04-41.43-0.09-61.68,0.41c-0.94,0.82-2.51,2.89-3.26,4.68
	c-24.17,58.17-48.17,116.39-72.18,174.62l-25.76,62.43c-4.52,10.98-9.15,21.92-13.99,33.39l-13.07,31.03l-8.87-19.32
	c-1.37-2.92-2.46-5.27-3.46-7.66c-37.93-91.44-75.84-182.87-113.66-274.34c-2.02-4.86-2.49-5.5-4.48-5.5
	C425.98,29.52,425.67,29.54,425.33,29.55z M880.52,29.46v381.09h410.62v-56.69H946.23V240.89h321.52v-61.92H946.19V85.56h344.96
	v-56.1H880.52z M1544.05,348.04V94.08l5.62-1.1c0.43-0.08,0.86-0.19,1.26-0.3c1.29-0.31,2.98-0.69,4.73-0.71
	c16.86,0.12,84.31,0.17,101.17,0.2c41.68,0.09,84.76,0.2,127.15,1.64c31.73,1.09,61.59,12.51,88.75,33.91
	c30.16,23.79,47.24,57.9,46.84,93.6c-0.4,35.78-18.32,69.62-49.16,92.82c-25.35,19.06-55.15,29.85-91.1,32.99
	c-6.65,0.58-13.62,0.86-21.31,0.87c-17.87,0.03-35.74,0.04-53.64,0.04h-64.64L1544.05,348.04z M1542.59,28.67l-59.91,0.05
	c-1.47,0-2.92,0.06-4.42,0.14v382.36c0.33,0.02,0.6,0.07,0.98,0.02h4.8c22.03,0,44.05,0.05,66.09,0.09
	c57.31,0.13,167.15,0.25,225.4-0.52c45.23-0.6,87.6-14.29,125.93-40.65c46.93-32.29,76.44-81.85,80.95-135.98
	c4.37-52.44-15.41-104.16-54.3-141.92c-43.75-42.48-99.31-63.25-169.84-63.49c-30.44-0.11-76.64-0.14-121-0.14
	C1601.41,28.63,1566.77,28.65,1542.59,28.67z"/>
</svg>
