<svg width="188" height="20" viewBox="0 0 188 20" fill="none" xmlns="http://www.w3.org/2000/svg">
<g clip-path="url(#clip0)">
<path d="M-0.00143752 15.6492V0.571109C-0.00975499 0.493928 -0.000446875 0.415892 0.0258078 0.342716C0.0520625 0.26954 0.094596 0.203085 0.150296 0.148203C0.205995 0.0933218 0.273448 0.0514064 0.347715 0.0255374C0.421982 -0.000331657 0.501181 -0.00949643 0.579512 -0.00130113H9.04735C13.8094 -0.00130113 15.4642 1.97615 15.4642 5.81396V6.31699C15.4642 10.0421 13.8094 12.0412 9.04735 12.0412H3.24222V15.6492C3.25052 15.7269 3.24109 15.8055 3.21461 15.8792C3.18813 15.9529 3.14527 16.0198 3.08917 16.0751C3.03306 16.1304 2.96512 16.1726 2.89033 16.1987C2.81553 16.2248 2.73577 16.2341 2.65686 16.2259H0.579512C0.500772 16.2342 0.421145 16.225 0.34652 16.1989C0.271895 16.1728 0.204187 16.1305 0.148402 16.0751C0.092617 16.0197 0.0501796 15.9527 0.0242431 15.8789C-0.00169347 15.8052 -0.0104671 15.7267 -0.00143752 15.6492ZM8.80088 9.00997C11.2039 9.00997 12.2294 8.5026 12.2294 6.29531V5.81396C12.2294 3.48959 11.2523 3.05594 8.80088 3.05594H3.24222V9.00997H8.80088Z" fill="black"/>
<path d="M19.0967 19.4276V17.7493C19.0884 17.6716 19.0978 17.593 19.1243 17.5193C19.1508 17.4456 19.1936 17.3787 19.2498 17.3234C19.3059 17.2681 19.3738 17.2259 19.4486 17.1998C19.5234 17.1737 19.6032 17.1644 19.6821 17.1726H25.584C26.9836 17.1726 27.4325 16.83 27.4589 15.9714V13.8595C26.922 14.8916 25.9405 15.4206 24.0744 15.4206H21.9751C18.2209 15.4206 17.1338 13.608 17.1338 10.3209V3.8855C17.1255 3.80775 17.1349 3.72915 17.1614 3.65545C17.1879 3.58176 17.2307 3.51483 17.2868 3.45955C17.3429 3.40427 17.4109 3.36203 17.4857 3.33594C17.5605 3.30985 17.6402 3.30056 17.7191 3.30875H19.6292C19.7081 3.30056 19.7879 3.30985 19.8627 3.33594C19.9375 3.36203 20.0054 3.40427 20.0615 3.45955C20.1177 3.51483 20.1605 3.58176 20.187 3.65545C20.2135 3.72915 20.2229 3.80775 20.2146 3.8855V10.6418C20.2146 12.2506 20.6547 12.5932 22.0103 12.5932H25.6236C26.8604 12.5932 27.4457 12.294 27.4457 10.6418V3.8855C27.4367 3.80798 27.4455 3.72945 27.4714 3.65573C27.4973 3.58201 27.5398 3.51497 27.5955 3.45959C27.6513 3.40421 27.719 3.3619 27.7937 3.33578C27.8683 3.30967 27.9479 3.30044 28.0267 3.30875H29.9412C30.0199 3.30044 30.0995 3.30967 30.1742 3.33578C30.2488 3.3619 30.3165 3.40421 30.3723 3.45959C30.4281 3.51497 30.4705 3.58201 30.4964 3.65573C30.5224 3.72945 30.5311 3.80798 30.5221 3.8855V15.6505C30.5221 19.4102 29.413 19.987 25.5708 19.987H19.6733C19.5965 19.9942 19.519 19.9847 19.4464 19.9593C19.3737 19.9338 19.3076 19.893 19.2526 19.8397C19.1976 19.7864 19.1552 19.7219 19.1283 19.6507C19.1014 19.5795 19.0906 19.5033 19.0967 19.4276Z" fill="black"/>
<path d="M33.0137 10.7806V5.84561C33.0137 2.46747 34.6377 0.351257 38.4315 0.351257H43.5324C47.3263 0.351257 48.9503 2.46747 48.9503 5.84561V5.915C48.9586 5.99104 48.9496 6.06796 48.9238 6.14009C48.898 6.21223 48.8561 6.27776 48.8012 6.33184C48.7463 6.38593 48.6798 6.42719 48.6066 6.45262C48.5334 6.47804 48.4553 6.48697 48.3781 6.47875H46.3448C45.9795 6.47875 45.7726 6.3183 45.7726 6.0928V5.72853C45.7726 3.76843 45.1125 3.34345 43.5324 3.34345H38.4315C36.8559 3.34345 36.1913 3.7771 36.1913 5.72853V10.889C36.1913 12.8274 36.8999 13.2567 38.4315 13.2567H43.5324C45.0641 13.2567 45.7726 12.8231 45.7726 10.889V10.4553C45.7643 10.3793 45.7734 10.3024 45.7992 10.2302C45.825 10.1581 45.8668 10.0926 45.9217 10.0385C45.9766 9.98441 46.0431 9.94313 46.1163 9.91771C46.1896 9.89229 46.2676 9.88337 46.3448 9.89159H48.3781C48.7434 9.89159 48.9503 10.052 48.9503 10.3252V10.7589C48.9503 14.1154 47.3263 16.2359 43.5324 16.2359H38.4315C34.6377 16.2576 33.0137 14.137 33.0137 10.7806Z" fill="black"/>
<path d="M50.9209 11.1232V8.33046C50.9209 5.13445 51.9948 3.29578 55.7622 3.29578H59.6352C63.3938 3.29578 64.4765 5.13445 64.4765 8.33046V11.1102C64.4765 14.3972 63.407 16.2142 59.6352 16.2142H55.7622C51.986 16.2272 50.9209 14.4016 50.9209 11.1232ZM59.5516 13.3998C60.9511 13.3998 61.3737 13.0312 61.3737 11.4441V8.06594C61.3737 6.5048 60.9775 6.13619 59.5516 6.13619H55.8194C54.3978 6.13619 54.0017 6.5048 54.0017 8.06594V11.4441C54.0017 13.0312 54.4198 13.3998 55.8194 13.3998H59.5516Z" fill="black"/>
<path d="M79.8903 8.41282V15.6505C79.8986 15.7282 79.8892 15.8068 79.8627 15.8805C79.8362 15.9542 79.7934 16.0211 79.7373 16.0764C79.6812 16.1317 79.6132 16.1739 79.5384 16.2C79.4636 16.2261 79.3839 16.2354 79.3049 16.2272H77.3948C77.3159 16.2354 77.2362 16.2261 77.1614 16.2C77.0866 16.1739 77.0187 16.1317 76.9625 16.0764C76.9064 16.0211 76.8636 15.9542 76.8371 15.8805C76.8106 15.8068 76.8012 15.7282 76.8095 15.6505V8.08758C76.8095 6.50475 76.3914 6.13615 74.9918 6.13615H71.7261C70.463 6.13615 69.9041 6.45705 69.9041 8.08758V15.6505C69.9131 15.728 69.9043 15.8065 69.8784 15.8802C69.8524 15.954 69.81 16.021 69.7542 16.0764C69.6984 16.1318 69.6307 16.1741 69.5561 16.2002C69.4815 16.2263 69.4019 16.2355 69.3231 16.2272H67.4086C67.3299 16.2355 67.2502 16.2263 67.1756 16.2002C67.101 16.1741 67.0333 16.1318 66.9775 16.0764C66.9217 16.021 66.8793 15.954 66.8533 15.8802C66.8274 15.8065 66.8186 15.728 66.8277 15.6505V3.8855C66.8186 3.80798 66.8274 3.72945 66.8533 3.65573C66.8793 3.58201 66.9217 3.51497 66.9775 3.45959C67.0333 3.40421 67.101 3.3619 67.1756 3.33578C67.2502 3.30967 67.3299 3.30044 67.4086 3.30875H69.3231C69.4019 3.30044 69.4815 3.30967 69.5561 3.33578C69.6307 3.3619 69.6984 3.40421 69.7542 3.45959C69.81 3.51497 69.8524 3.58201 69.8784 3.65573C69.9043 3.72945 69.9131 3.80798 69.9041 3.8855V4.80484C70.463 3.83779 71.4929 3.30875 73.2886 3.30875H75.049C78.7944 3.30875 79.8903 5.12574 79.8903 8.41282Z" fill="black"/>
<path d="M86.1929 10.6418V8.87251C86.1839 8.79499 86.1926 8.71646 86.2186 8.64274C86.2445 8.56902 86.2869 8.50198 86.3427 8.4466C86.3985 8.39122 86.4662 8.34891 86.5408 8.32279C86.6155 8.29668 86.6951 8.28745 86.7738 8.29576H88.8512C88.9299 8.28745 89.0096 8.29668 89.0842 8.32279C89.1588 8.34891 89.2265 8.39122 89.2823 8.4466C89.3381 8.50198 89.3805 8.56902 89.4065 8.64274C89.4324 8.71646 89.4412 8.79499 89.4321 8.87251V10.7546C89.4321 12.732 90.1583 13.17 91.7208 13.17H96.2539C97.8164 13.17 98.5161 12.7363 98.5161 10.7546V0.572417C98.5077 0.494833 98.5171 0.416376 98.5436 0.342847C98.5701 0.269318 98.613 0.202611 98.6692 0.147646C98.7254 0.0926802 98.7935 0.0508662 98.8683 0.0253106C98.9431 -0.000244955 99.0228 -0.00888972 99.1015 7.23358e-06H101.201C101.279 -0.00818806 101.358 0.000976711 101.433 0.0268458C101.507 0.0527148 101.574 0.0946301 101.63 0.149512C101.686 0.204393 101.728 0.270849 101.755 0.344025C101.781 0.417201 101.79 0.495237 101.782 0.572417V10.6418C101.782 14.0676 100.105 16.2272 96.2539 16.2272H91.7208C87.8477 16.2272 86.1929 14.0676 86.1929 10.6418Z" fill="black"/>
<path d="M103.969 15.6505V0.572421C103.961 0.495241 103.97 0.417205 103.997 0.344029C104.023 0.270853 104.065 0.204397 104.121 0.149515C104.177 0.094634 104.244 0.0527187 104.318 0.0268497C104.393 0.000980599 104.472 -0.00818417 104.55 1.11219e-05H113.018C117.78 1.11219e-05 119.435 1.97746 119.435 5.81528V6.3183C119.435 10.0434 117.78 12.0425 113.018 12.0425H107.213V15.6505C107.221 15.7282 107.212 15.8068 107.185 15.8805C107.159 15.9542 107.116 16.0212 107.06 16.0764C107.004 16.1317 106.936 16.174 106.861 16.2C106.786 16.2261 106.706 16.2354 106.628 16.2272H104.55C104.471 16.2355 104.392 16.2263 104.317 16.2002C104.243 16.1741 104.175 16.1318 104.119 16.0764C104.063 16.021 104.021 15.954 103.995 15.8803C103.969 15.8065 103.96 15.728 103.969 15.6505ZM112.772 9.01129C115.175 9.01129 116.2 8.50391 116.2 6.29662V5.81528C116.2 3.49091 115.223 3.05725 112.772 3.05725H107.213V9.01129H112.772Z" fill="black"/>
<path d="M129.812 15.6505V13.608C129.811 13.4682 129.846 13.3304 129.916 13.2086C129.985 13.0867 130.086 12.9852 130.209 12.9141L139.539 7.3764C141.3 6.34431 141.74 5.9974 141.74 4.9176C141.74 3.42584 141.154 3.05724 139.337 3.05724H135.345C133.668 3.05724 133.061 3.44752 133.061 5.49435V5.67649C133.069 5.75424 133.059 5.83283 133.033 5.90653C133.006 5.98022 132.964 6.04716 132.908 6.10244C132.851 6.15772 132.783 6.19996 132.709 6.22605C132.634 6.25214 132.554 6.26143 132.475 6.25324H130.402C130.028 6.25324 129.817 6.13616 129.817 5.92801V5.60711C129.817 2.1379 131.01 0 135.345 0H139.429C143.487 0 144.957 1.7346 144.957 4.68777C144.957 7.44579 143.791 8.20468 140.556 10.0911L135.274 13.17H144.328C144.406 13.1618 144.485 13.171 144.559 13.1968C144.634 13.2227 144.701 13.2646 144.757 13.3195C144.812 13.3744 144.855 13.4408 144.881 13.514C144.907 13.5872 144.917 13.6652 144.908 13.7424V15.6505C144.917 15.728 144.909 15.8065 144.883 15.8802C144.857 15.954 144.814 16.021 144.759 16.0764C144.703 16.1318 144.635 16.1741 144.561 16.2002C144.486 16.2263 144.406 16.2355 144.328 16.2272H130.398C130.319 16.2354 130.239 16.2261 130.164 16.2C130.09 16.1739 130.022 16.1317 129.966 16.0764C129.909 16.0211 129.867 15.9542 129.84 15.8805C129.814 15.8068 129.804 15.7282 129.812 15.6505Z" fill="black"/>
<path d="M146.659 10.6418V5.60711C146.659 2.1379 148.314 0 152.187 0H157.715C161.588 0 163.243 2.16825 163.243 5.60711V10.6418C163.243 14.0676 161.588 16.2272 157.715 16.2272H152.187C148.314 16.2272 146.659 14.0676 146.659 10.6418ZM157.715 13.17C159.277 13.17 159.999 12.7363 159.999 10.7545V5.49436C159.999 3.49089 159.348 3.05724 157.715 3.05724H152.187C150.576 3.05724 149.898 3.49089 149.898 5.49436V10.7545C149.898 12.732 150.62 13.17 152.187 13.17H157.715Z" fill="black"/>
<path d="M164.995 15.6505V13.608C164.993 13.4682 165.029 13.3304 165.098 13.2086C165.168 13.0867 165.269 12.9852 165.391 12.9141L174.722 7.3764C176.482 6.34431 176.922 5.9974 176.922 4.9176C176.922 3.42584 176.337 3.05724 174.519 3.05724H170.527C168.851 3.05724 168.243 3.44752 168.243 5.49435V5.67649C168.252 5.75401 168.243 5.83254 168.217 5.90626C168.192 5.97999 168.149 6.04702 168.093 6.1024C168.038 6.15778 167.97 6.2001 167.895 6.22621C167.821 6.25232 167.741 6.26156 167.662 6.25324H165.585C165.211 6.25324 165 6.13616 165 5.92801V5.60711C165 2.1379 166.192 0 170.527 0H174.594C178.652 0 180.122 1.7346 180.122 4.68777C180.122 7.44579 178.956 8.20468 175.721 10.0911L170.439 13.17H179.493C179.571 13.1618 179.65 13.171 179.724 13.1968C179.799 13.2227 179.866 13.2646 179.922 13.3195C179.977 13.3744 180.02 13.4408 180.046 13.514C180.072 13.5872 180.082 13.6652 180.073 13.7424V15.6505C180.083 15.728 180.074 15.8065 180.048 15.8802C180.022 15.954 179.979 16.021 179.924 16.0764C179.868 16.1318 179.8 16.1741 179.726 16.2002C179.651 16.2263 179.571 16.2355 179.493 16.2272H165.58C165.502 16.2354 165.422 16.2261 165.347 16.2C165.272 16.1739 165.204 16.1317 165.148 16.0764C165.092 16.0211 165.049 15.9542 165.023 15.8805C164.996 15.8068 164.987 15.7282 164.995 15.6505Z" fill="black"/>
<path d="M184.757 15.6505V5.21683H181.957C181.879 5.22503 181.8 5.21585 181.726 5.18998C181.651 5.16411 181.584 5.12221 181.528 5.06733C181.473 5.01245 181.43 4.94598 181.404 4.8728C181.377 4.79962 181.368 4.72159 181.376 4.64441V3.05724C181.367 2.97972 181.376 2.9012 181.402 2.82748C181.428 2.75375 181.471 2.68672 181.526 2.63133C181.582 2.57595 181.65 2.53364 181.724 2.50753C181.799 2.48142 181.879 2.47218 181.957 2.48049H183.102C184.862 2.48049 184.897 2.32004 184.897 0.780574V0.572417C184.889 0.494833 184.898 0.416376 184.925 0.342847C184.951 0.269318 184.994 0.202611 185.051 0.147646C185.107 0.0926802 185.175 0.0508662 185.25 0.0253106C185.324 -0.000244954 185.404 -0.00888972 185.483 7.23382e-06H187.419C187.498 -0.00818806 187.577 0.000976712 187.651 0.0268458C187.725 0.0527148 187.793 0.0946301 187.849 0.149512C187.904 0.204393 187.947 0.270849 187.973 0.344025C187.999 0.417201 188.009 0.495237 188 0.572417V15.6505C188.009 15.728 188.001 15.8065 187.975 15.8802C187.949 15.954 187.906 16.021 187.85 16.0764C187.795 16.1318 187.727 16.1741 187.652 16.2002C187.578 16.2263 187.498 16.2355 187.419 16.2272H185.342C185.263 16.2354 185.183 16.2261 185.108 16.2C185.034 16.1739 184.966 16.1317 184.91 16.0764C184.854 16.0211 184.811 15.9542 184.784 15.8805C184.758 15.8068 184.748 15.7282 184.757 15.6505Z" fill="black"/>
</g>
<defs>
<clipPath id="clip0">
<rect width="188" height="20" fill="white"/>
</clipPath>
</defs>
</svg>
